<?xml version="1.0" standalone="no"?><!DOCTYPE svg PUBLIC "-//W3C//DTD SVG 1.1//EN" "http://www.w3.org/Graphics/SVG/1.1/DTD/svg11.dtd"><svg class="icon" width="200px" height="200.00px" viewBox="0 0 1024 1024" version="1.1" xmlns="http://www.w3.org/2000/svg"><path fill="#333333" d="M483.498667 757.418667S704.853333 567.637333 704.853333 370.517333c-1.706667-119.125333-100.352-215.893333-221.354666-215.893333S262.144 251.392 262.144 370.346667c0 204.8 221.354667 387.072 221.354667 387.072z m-120.832-381.44c0-66.901333 53.930667-121.002667 121.002666-121.002667s121.002667 53.930667 121.002667 121.002667-53.930667 121.002667-121.002667 121.002666-121.002667-55.808-121.002666-121.002666zM658.432 640.170667c-14.848 18.602667-27.989333 37.205333-42.837333 52.053333 154.453333 9.386667 187.904 40.96 195.413333 57.685333-7.509333 18.602667-111.616 63.317333-318.122667 63.317334-206.506667 1.877333-310.784-44.714667-316.245333-61.44 5.632-14.848 29.696-44.714667 171.178667-55.808-12.970667-14.848-27.989333-33.450667-42.837334-52.053334-115.370667 12.970667-184.149333 40.96-184.149333 105.984 0 94.890667 234.496 119.125333 373.930667 119.125334S868.693333 842.922667 868.693333 749.909333c0-68.778667-85.504-98.474667-210.261333-109.738666z" /></svg>